<svg width="187" height="109" fill="none" xmlns="http://www.w3.org/2000/svg"><path d="M9.092 41.484a5.749 5.749 0 005.742-5.742A5.749 5.749 0 009.092 30a5.748 5.748 0 00-5.742 5.742 5.748 5.748 0 005.742 5.742zm6.042.391a8.586 8.586 0 01-6.042 2.48 8.586 8.586 0 01-6.042-2.48A9.07 9.07 0 000 48.662v11.676c0 .793.643 1.435 1.436 1.435H2.87v15.791c0 .793.643 1.436 1.436 1.436h9.57c.793 0 1.435-.643 1.435-1.436v-15.79h1.436c.793 0 1.436-.643 1.436-1.436V48.662a9.07 9.07 0 00-3.05-6.787zm17.958 23.609a5.749 5.749 0 005.742-5.742A5.749 5.749 0 0033.092 54a5.749 5.749 0 00-5.742 5.742 5.749 5.749 0 005.742 5.742zm6.042.391a8.586 8.586 0 01-6.042 2.48 8.586 8.586 0 01-6.042-2.48A9.07 9.07 0 0024 72.662v11.676c0 .793.643 1.435 1.436 1.435h1.435v15.791c0 .793.643 1.436 1.436 1.436h9.57c.793 0 1.435-.643 1.435-1.436v-15.79h1.436c.793 0 1.436-.643 1.436-1.436V72.662a9.07 9.07 0 00-3.05-6.787zm-6.042-54.391a5.749 5.749 0 005.742-5.742A5.748 5.748 0 0033.092 0a5.748 5.748 0 00-5.742 5.742 5.749 5.749 0 005.742 5.742zm6.042.391a8.586 8.586 0 01-6.042 2.48 8.586 8.586 0 01-6.042-2.48A9.07 9.07 0 0024 18.662v11.676c0 .793.643 1.435 1.436 1.435h1.435v15.792c0 .792.643 1.435 1.436 1.435h9.57c.793 0 1.435-.643 1.435-1.435V31.773h1.436c.793 0 1.436-.642 1.436-1.435V18.662a9.07 9.07 0 00-3.05-6.787zm17.958 29.609a5.749 5.749 0 005.742-5.742A5.749 5.749 0 0057.092 30a5.749 5.749 0 00-5.742 5.742 5.749 5.749 0 005.742 5.742zm6.042.391a8.586 8.586 0 01-6.042 2.48 8.586 8.586 0 01-6.042-2.48A9.07 9.07 0 0048 48.662v11.676c0 .793.643 1.435 1.435 1.435h1.436v15.791c0 .793.643 1.436 1.436 1.436h9.57c.793 0 1.435-.643 1.435-1.436v-15.79h1.436c.793 0 1.436-.643 1.436-1.436V48.662a9.07 9.07 0 00-3.05-6.787zm17.958-30.391a5.749 5.749 0 005.742-5.742A5.748 5.748 0 0081.092 0a5.748 5.748 0 00-5.742 5.742 5.749 5.749 0 005.742 5.742zm6.042.391a8.586 8.586 0 01-6.042 2.48 8.586 8.586 0 01-6.042-2.48A9.07 9.07 0 0072 18.662v11.676c0 .793.643 1.435 1.436 1.435h1.435v15.792c0 .792.643 1.435 1.436 1.435h9.57c.793 0 1.436-.643 1.436-1.435V31.773h1.435c.793 0 1.436-.642 1.436-1.435V18.662a9.07 9.07 0 00-3.05-6.787zm-6.042 53.609a5.749 5.749 0 005.742-5.742A5.749 5.749 0 0081.092 54a5.749 5.749 0 00-5.742 5.742 5.749 5.749 0 005.742 5.742zm6.042.391a8.586 8.586 0 01-6.042 2.48 8.586 8.586 0 01-6.042-2.48A9.07 9.07 0 0072 72.662v11.676c0 .793.643 1.435 1.436 1.435h1.435v15.791c0 .793.643 1.436 1.436 1.436h9.57c.793 0 1.436-.643 1.436-1.436v-15.79h1.435c.793 0 1.436-.643 1.436-1.436V72.662a9.07 9.07 0 00-3.05-6.787zm41.958-.391a5.749 5.749 0 005.742-5.742A5.749 5.749 0 00129.092 54a5.748 5.748 0 00-5.742 5.742 5.748 5.748 0 005.742 5.742zm6.042.391a8.585 8.585 0 01-6.042 2.48 8.585 8.585 0 01-6.042-2.48 9.07 9.07 0 00-3.05 6.787v11.676c0 .793.643 1.435 1.436 1.435h1.435v15.791c0 .793.643 1.436 1.436 1.436h9.57c.793 0 1.436-.643 1.436-1.436v-15.79h1.435c.793 0 1.436-.643 1.436-1.436V72.662a9.07 9.07 0 00-3.05-6.787zm-30.042-24.391a5.749 5.749 0 005.742-5.742A5.749 5.749 0 00105.092 30a5.748 5.748 0 00-5.742 5.742 5.748 5.748 0 005.742 5.742zm6.042.391a8.585 8.585 0 01-6.042 2.48 8.586 8.586 0 01-6.042-2.48A9.07 9.07 0 0096 48.662v11.676c0 .793.643 1.435 1.436 1.435h1.435v15.791c0 .793.643 1.436 1.436 1.436h9.57c.793 0 1.436-.643 1.436-1.436v-15.79h1.435c.793 0 1.436-.643 1.436-1.436V48.662a9.07 9.07 0 00-3.05-6.787zm65.958-30.391a5.749 5.749 0 005.742-5.742A5.749 5.749 0 00177.092 0a5.748 5.748 0 00-5.742 5.742 5.748 5.748 0 005.742 5.742zm6.042.391a8.585 8.585 0 01-6.042 2.48 8.585 8.585 0 01-6.042-2.48 9.07 9.07 0 00-3.05 6.787v11.676c0 .793.643 1.435 1.436 1.435h1.435v15.792c0 .792.643 1.435 1.436 1.435h9.57c.793 0 1.436-.643 1.436-1.435V31.773h1.435c.793 0 1.436-.642 1.436-1.435V18.662a9.07 9.07 0 00-3.05-6.787zm-6.042 59.609a5.749 5.749 0 005.742-5.742A5.749 5.749 0 00177.092 60a5.748 5.748 0 00-5.742 5.742 5.748 5.748 0 005.742 5.742zm6.042.391a8.585 8.585 0 01-6.042 2.48 8.585 8.585 0 01-6.042-2.48 9.07 9.07 0 00-3.05 6.787v11.676c0 .793.643 1.435 1.436 1.435h1.435v15.791c0 .793.643 1.436 1.436 1.436h9.57c.793 0 1.436-.643 1.436-1.436v-15.79h1.435c.793 0 1.436-.643 1.436-1.436V78.662a9.07 9.07 0 00-3.05-6.787zm-30.042-30.391a5.749 5.749 0 005.742-5.742A5.749 5.749 0 00153.092 30a5.748 5.748 0 00-5.742 5.742 5.748 5.748 0 005.742 5.742zm6.042.391a8.585 8.585 0 01-6.042 2.48 8.585 8.585 0 01-6.042-2.48 9.07 9.07 0 00-3.05 6.787v11.676c0 .793.643 1.435 1.436 1.435h1.435v15.791c0 .793.643 1.436 1.436 1.436h9.57c.793 0 1.436-.643 1.436-1.436v-15.79h1.435c.793 0 1.436-.643 1.436-1.436V48.662a9.07 9.07 0 00-3.05-6.787zm-30.042-30.391a5.749 5.749 0 005.742-5.742A5.749 5.749 0 00129.092 0a5.748 5.748 0 00-5.742 5.742 5.748 5.748 0 005.742 5.742zm6.042.391a8.585 8.585 0 01-6.042 2.48 8.585 8.585 0 01-6.042-2.48 9.07 9.07 0 00-3.05 6.787v11.676c0 .793.643 1.435 1.436 1.435h1.435v15.792c0 .792.643 1.435 1.436 1.435h9.57c.793 0 1.436-.643 1.436-1.435V31.773h1.435c.793 0 1.436-.642 1.436-1.435V18.662a9.07 9.07 0 00-3.05-6.787z" fill="#6FF18C"/></svg>