<svg width="36" height="98" fill="none" xmlns="http://www.w3.org/2000/svg"><path d="M18 22.737c6.27 0 11.369-5.1 11.369-11.369C29.369 5.1 24.269 0 18 0S6.632 5.1 6.632 11.368c0 6.27 5.1 11.369 11.368 11.369zm11.962.773A16.998 16.998 0 0118 28.42c-4.656 0-8.88-1.876-11.962-4.912C2.336 26.81 0 31.61 0 36.947v23.116a2.842 2.842 0 002.842 2.842h2.842v31.263a2.842 2.842 0 002.842 2.842h18.948a2.842 2.842 0 002.842-2.842V62.905h2.842A2.842 2.842 0 0036 60.063V36.947c0-5.338-2.336-10.139-6.038-13.438z" fill="#96FFF8"/></svg>