<svg xmlns="http://www.w3.org/2000/svg" width="18.741" height="18"><g data-name="Group 28"><path data-name="Path 27" d="M8.588 12.01a1.553 1.553 0 01-.317-1.782h-.005a6.512 6.512 0 001.8-4.242 3.5 3.5 0 00-3.583-3.758 3.442 3.442 0 00-3.5 3.755 6.447 6.447 0 001.731 4.254 1.518 1.518 0 01-.441 1.775C2.3 12.728 0 14.046 0 15.343v.485c0 1.768 3.376 2.17 6.5 2.17s6.463-.4 6.463-2.17v-.487c.002-1.335-2.314-2.639-4.375-3.331z" fill="#303c42"/></g><g data-name="Group 29"><path data-name="Path 28" d="M14.625 8.762c-.088-.03-.647-.166-.3-1.244a6 6 0 001.537-3.987C15.862 1.214 14.411 0 12.648 0A3.006 3.006 0 009.73 1.933a5.061 5.061 0 011.776 4.053 7.9 7.9 0 01-1.867 4.87c1.52.575 3.9 1.733 4.576 3.5 2.4-.133 4.526-.63 4.526-2v-.457c-.001-1.26-2.178-2.486-4.116-3.137z" fill="#303c42"/></g></svg>