<svg xmlns="http://www.w3.org/2000/svg" width="17.016" height="18" viewBox="0 0 17.016 18">
  <path id="f119" d="M2.473-45.527l6.855-6.82,6.855,6.82v6.961a.28.28,0,0,1-.316.316H13.758v-6.293h-3.48v6.293H2.789a.28.28,0,0,1-.316-.316Zm5.59,3.9v-2.918H4.9v2.918Zm9.492-6.4a.893.893,0,0,1,.281.65.863.863,0,0,1-.264.633.884.884,0,0,1-.65.264.8.8,0,0,1-.633-.281L9.328-53.684,2.367-46.758a.8.8,0,0,1-.633.281.884.884,0,0,1-.65-.264.863.863,0,0,1-.264-.633.893.893,0,0,1,.281-.65l2.883-2.883V-54.07A.715.715,0,0,1,4.2-54.6a.715.715,0,0,1,.527-.211.715.715,0,0,1,.527.211.715.715,0,0,1,.211.527v1.688L9.328-56.25Z" transform="translate(-0.82 56.25)" fill="#303c42"/>
</svg>
