<svg xmlns="http://www.w3.org/2000/svg" width="17.308" height="14.397" viewBox="0 0 17.308 14.397">
  <g id="mail-box-email-post-delivery-envelope" transform="translate(0.051 -1.995)">
    <g id="Group_73" data-name="Group 73" transform="translate(-0.051 1.995)">
      <path id="Path_55" data-name="Path 55" d="M8.751,10.563h0a.707.707,0,0,0,.619-.417l2.879-7.657A.36.36,0,0,0,11.983,2a1.439,1.439,0,0,0-.82.187L.612,8.3a1.439,1.439,0,0,0-.626.677.36.36,0,0,0,0,.317.36.36,0,0,0,.266.18L8.7,10.563Z" transform="translate(0.051 -1.995)" fill="#303c42"/>
      <path id="Path_56" data-name="Path 56" d="M17.2,9.973,13.554,3.639a.367.367,0,0,0-.345-.18.36.36,0,0,0-.309.23l-2.7,7.168v.065a1.439,1.439,0,0,1-1.281.777H8.761L.844,10.678a.352.352,0,0,0-.345.54l2.425,4.145H1.845a.36.36,0,0,0-.36.36v.72a.36.36,0,0,0,.36.36H15.59a.36.36,0,0,0,.36-.36v-.72a.36.36,0,0,0-.36-.36H10.769l5.909-3.426A1.439,1.439,0,0,0,17.2,9.973Z" transform="translate(-0.088 -2.405)" fill="#303c42"/>
    </g>
  </g>
</svg>
