<svg width="174" height="67" viewBox="0 0 174 67" fill="none" xmlns="http://www.w3.org/2000/svg">
<path d="M10.45 42.475V33.07C11.605 31.31 14.19 29.99 16.445 29.99C20.515 29.99 23.21 33.125 23.21 37.745C23.21 42.365 20.515 45.445 16.445 45.445C14.19 45.445 11.605 44.18 10.45 42.475ZM10.45 51V47.59C12.54 50.23 15.455 51.66 18.645 51.66C25.355 51.66 30.415 46.6 30.415 37.745C30.415 29.055 25.41 23.775 18.645 23.775C15.51 23.775 12.54 25.15 10.45 27.845V14.315H3.465V51H10.45ZM60.6066 51V24.435H53.6216V42.42C52.4116 43.96 50.2666 45.445 47.5716 45.445C44.6016 45.445 42.6766 44.235 42.6766 40.55V24.435H35.6916V43.3C35.6916 48.47 38.4416 51.66 44.2716 51.66C48.6166 51.66 51.8066 49.68 53.6216 47.645V51H60.6066ZM92.8421 51V14.315H85.8021V27.845C83.7121 25.15 80.7421 23.775 77.6071 23.775C70.8421 23.775 65.8371 29.055 65.8371 37.745C65.8371 46.6 70.8971 51.66 77.6071 51.66C80.7971 51.66 83.7121 50.23 85.8021 47.59V51H92.8421ZM79.7521 45.445C75.7921 45.445 73.0421 42.31 73.0421 37.745C73.0421 33.125 75.7921 29.99 79.7521 29.99C82.1171 29.99 84.6471 31.255 85.8021 33.015V42.42C84.6471 44.18 82.1171 45.445 79.7521 45.445ZM110.659 61.78C117.204 61.78 125.014 59.305 125.014 49.185V24.435H117.974V27.845C115.829 25.15 112.969 23.775 109.779 23.775C103.069 23.775 98.0637 28.615 98.0637 37.305C98.0637 46.16 103.124 50.835 109.779 50.835C113.024 50.835 115.884 49.295 117.974 46.655V49.35C117.974 54.575 114.014 56.06 110.659 56.06C107.304 56.06 104.499 55.125 102.354 52.76L99.2187 57.82C102.574 60.735 106.094 61.78 110.659 61.78ZM111.979 44.62C108.019 44.62 105.269 41.87 105.269 37.305C105.269 32.74 108.019 29.99 111.979 29.99C114.289 29.99 116.819 31.255 117.974 33.015V41.595C116.819 43.3 114.289 44.62 111.979 44.62Z" fill="#144867"/>
<path d="M174 0L129 12.6033V61H156.692L174 45.876V0Z" fill="#1BB990"/>
<rect x="131" y="30" width="8" height="31" fill="white"/>
<rect x="131" y="15" width="8" height="8" fill="white"/>
<rect x="155" y="23" width="8" height="38" fill="white"/>
<rect x="144" y="23" width="8" height="30" transform="rotate(-90 144 23)" fill="white"/>
</svg>
