<svg width="174" height="67" fill="none" xmlns="http://www.w3.org/2000/svg"><path d="M10.45 42.475V33.07c1.155-1.76 3.74-3.08 5.995-3.08 4.07 0 6.765 3.135 6.765 7.755s-2.695 7.7-6.765 7.7c-2.255 0-4.84-1.265-5.995-2.97zm0 8.525v-3.41c2.09 2.64 5.005 4.07 8.195 4.07 6.71 0 11.77-5.06 11.77-13.915 0-8.69-5.005-13.97-11.77-13.97-3.135 0-6.105 1.375-8.195 4.07v-13.53H3.465V51h6.985zm50.157 0V24.435h-6.985V42.42c-1.21 1.54-3.355 3.025-6.05 3.025-2.97 0-4.895-1.21-4.895-4.895V24.435h-6.985V43.3c0 5.17 2.75 8.36 8.58 8.36 4.345 0 7.535-1.98 9.35-4.015V51h6.985zm32.235 0V14.315h-7.04v13.53c-2.09-2.695-5.06-4.07-8.195-4.07-6.765 0-11.77 5.28-11.77 13.97 0 8.855 5.06 13.915 11.77 13.915 3.19 0 6.105-1.43 8.195-4.07V51h7.04zm-13.09-5.555c-3.96 0-6.71-3.135-6.71-7.7 0-4.62 2.75-7.755 6.71-7.755 2.365 0 4.895 1.265 6.05 3.025v9.405c-1.155 1.76-3.685 3.025-6.05 3.025zM110.66 61.78c6.545 0 14.355-2.475 14.355-12.595v-24.75h-7.04v3.41c-2.145-2.695-5.005-4.07-8.195-4.07-6.71 0-11.715 4.84-11.715 13.53 0 8.855 5.06 13.53 11.715 13.53 3.245 0 6.105-1.54 8.195-4.18v2.695c0 5.225-3.96 6.71-7.315 6.71-3.355 0-6.16-.935-8.305-3.3l-3.135 5.06c3.355 2.915 6.875 3.96 11.44 3.96zm1.32-17.16c-3.96 0-6.71-2.75-6.71-7.315s2.75-7.315 6.71-7.315c2.31 0 4.84 1.265 5.995 3.025v8.58c-1.155 1.705-3.685 3.025-5.995 3.025z" fill="#144867"/><path d="M174 0l-45 12.603V61h27.692L174 45.876V0z" fill="#1BB990"/><path fill="#fff" d="M131 30h8v31h-8zm0-15h8v8h-8zm24 8h8v38h-8zm-11 0v-8h30v8z"/></svg>