<svg width="36" height="98" viewBox="0 0 36 98" fill="none" xmlns="http://www.w3.org/2000/svg">
<path d="M18.0003 22.7368C24.2692 22.7368 29.3687 17.6373 29.3687 11.3684C29.3687 5.09951 24.2692 0 18.0003 0C11.7313 0 6.63184 5.09951 6.63184 11.3684C6.63184 17.6373 11.7313 22.7368 18.0003 22.7368Z" fill="#96FFF8"/>
<path d="M29.962 23.5095C26.8808 26.5448 22.6562 28.421 18 28.421C13.3438 28.421 9.11916 26.5448 6.03799 23.5095C2.33586 26.8083 0 31.6095 0 36.9474V60.0632C0 61.633 1.27229 62.9053 2.84211 62.9053H5.68421V94.1684C5.68421 95.7382 6.9565 97.0105 8.52632 97.0105H27.4737C29.0435 97.0105 30.3158 95.7382 30.3158 94.1684V62.9053H33.1579C34.7277 62.9053 36 61.633 36 60.0632V36.9474C36 31.6095 33.6641 26.8083 29.962 23.5095Z" fill="#96FFF8"/>
</svg>
