<svg xmlns="http://www.w3.org/2000/svg" width="17.308" height="14.397"><g data-name="Group 73" fill="#303c42"><path data-name="Path 55" d="M8.802 8.568a.707.707 0 00.619-.417L12.3.494a.36.36 0 00-.266-.489 1.439 1.439 0 00-.82.187L.663 6.305a1.439 1.439 0 00-.626.677.36.36 0 000 .317.36.36 0 00.266.18l8.448 1.089z"/><path data-name="Path 56" d="M17.112 7.568l-3.646-6.334a.367.367 0 00-.345-.18.36.36 0 00-.309.23l-2.7 7.168v.065a1.439 1.439 0 01-1.281.777h-.158L.756 8.273a.352.352 0 00-.345.54l2.425 4.145H1.757a.36.36 0 00-.36.36v.72a.36.36 0 00.36.36h13.745a.36.36 0 00.36-.36v-.72a.36.36 0 00-.36-.36h-4.821l5.909-3.426a1.439 1.439 0 00.522-1.964z"/></g></svg>