<svg width="50" height="50" viewBox="0 0 50 50" fill="none" xmlns="http://www.w3.org/2000/svg">
<path d="M42.6885 7.31155C32.9398 -2.43718 17.0723 -2.43718 7.32361 7.31155C2.6013 12.0357 0 18.3154 0 24.994C0 31.6725 2.6013 37.9522 7.32361 42.6745C12.199 47.5499 18.6025 49.9865 25.006 49.9865C31.4095 49.9865 37.8132 47.5499 42.6884 42.6745C52.4372 32.9258 52.4372 17.0621 42.6885 7.31155ZM39.9496 39.9356C31.7098 48.1755 18.3022 48.1755 10.0624 39.9356C6.07233 35.9455 3.87387 30.6383 3.87387 24.994C3.87387 19.3497 6.07233 14.0424 10.0624 10.0503C18.3022 1.81052 31.7098 1.81247 39.9496 10.0503C48.1875 18.2902 48.1875 31.6977 39.9496 39.9356Z" fill="#949494"/>
<path d="M33.3526 30.3472L27.869 24.8715L33.3526 19.3958C34.108 18.6404 34.108 17.4143 33.3546 16.6569C32.5972 15.8976 31.3711 15.8995 30.6138 16.6549L25.1264 22.1346L19.6391 16.6549C18.8817 15.8995 17.6557 15.8976 16.8983 16.6569C16.1429 17.4142 16.1429 18.6403 16.9003 19.3958L22.3838 24.8715L16.9003 30.3472C16.1429 31.1026 16.1429 32.3287 16.8983 33.0861C17.2761 33.4657 17.7738 33.6536 18.2697 33.6536C18.7656 33.6536 19.2614 33.4638 19.6392 33.088L25.1265 27.6083L30.6139 33.088C30.9916 33.4657 31.4874 33.6536 31.9833 33.6536C32.4792 33.6536 32.977 33.4638 33.3547 33.0861C34.1099 32.3287 34.1099 31.1026 33.3526 30.3472Z" fill="#949494"/>
</svg>
