<svg xmlns="http://www.w3.org/2000/svg" width="18.741" height="18" viewBox="0 0 18.741 18">
  <g id="social-group" transform="translate(0 -0.514)">
    <g id="Group_28" data-name="Group 28" transform="translate(0 2.741)">
      <path id="Path_27" data-name="Path 27" d="M8.588,13.382A1.553,1.553,0,0,1,8.271,11.6H8.266a6.512,6.512,0,0,0,1.8-4.242A3.5,3.5,0,0,0,6.483,3.6a3.442,3.442,0,0,0-3.5,3.755,6.447,6.447,0,0,0,1.731,4.254,1.518,1.518,0,0,1-.441,1.775C2.3,14.1,0,15.418,0,16.715V17.2c0,1.768,3.376,2.17,6.5,2.17s6.463-.4,6.463-2.17v-.487C12.965,15.378,10.649,14.074,8.588,13.382Z" transform="translate(0 -3.599)" fill="#303c42"/>
    </g>
    <g id="Group_29" data-name="Group 29" transform="translate(9.639 0.514)">
      <path id="Path_28" data-name="Path 28" d="M18.338,9.276c-.088-.03-.647-.166-.3-1.244h0a6,6,0,0,0,1.537-3.987c0-2.317-1.451-3.531-3.214-3.531a3.006,3.006,0,0,0-2.918,1.933A5.061,5.061,0,0,1,15.219,6.5a7.9,7.9,0,0,1-1.867,4.87c1.52.575,3.9,1.733,4.576,3.5,2.4-.133,4.526-.63,4.526-2v-.457C22.453,11.153,20.276,9.927,18.338,9.276Z" transform="translate(-13.352 -0.514)" fill="#303c42"/>
    </g>
  </g>
</svg>
