<svg width="50" height="50" fill="none" xmlns="http://www.w3.org/2000/svg"><path d="M42.688 7.312c-9.748-9.75-25.616-9.75-35.364 0C2.6 12.036 0 18.315 0 24.994a24.842 24.842 0 007.324 17.68c4.875 4.876 11.278 7.313 17.682 7.313 6.404 0 12.807-2.437 17.682-7.313 9.75-9.748 9.75-25.612 0-35.362zM39.95 39.936c-8.24 8.24-21.648 8.24-29.888 0a20.994 20.994 0 01-6.188-14.942 21.002 21.002 0 016.188-14.944c8.24-8.24 21.648-8.238 29.888 0 8.237 8.24 8.237 21.648 0 29.886z" fill="#949494"/><path d="M33.353 30.347l-5.484-5.476 5.484-5.475a1.937 1.937 0 10-2.739-2.74l-5.488 5.479-5.487-5.48a1.937 1.937 0 10-2.739 2.74l5.484 5.477-5.484 5.475a1.937 1.937 0 102.74 2.741l5.486-5.48 5.488 5.48a1.93 1.93 0 001.37.566 1.936 1.936 0 001.369-3.307z" fill="#949494"/></svg>