<svg xmlns="http://www.w3.org/2000/svg" width="17.016" height="18"><path d="M1.653 10.723l6.855-6.82 6.855 6.82v6.961a.28.28 0 01-.316.316h-2.109v-6.293h-3.48V18H1.969a.28.28 0 01-.316-.316zm5.59 3.9v-2.918H4.08v2.918zm9.492-6.4a.893.893 0 01.281.65.863.863 0 01-.264.633.884.884 0 01-.65.264.8.8 0 01-.633-.281L8.508 2.566 1.547 9.492a.8.8 0 01-.633.281.884.884 0 01-.65-.264A.863.863 0 010 8.876a.893.893 0 01.281-.65l2.883-2.883V2.18a.715.715 0 01.216-.53.715.715 0 01.527-.211.715.715 0 01.527.211.715.715 0 01.211.527v1.688L8.508 0z" fill="#303c42"/></svg>