<svg xmlns="http://www.w3.org/2000/svg" width="6.251" height="9.136" viewBox="0 0 6.251 9.136"><defs><style>.a{fill:#fff;}</style></defs><g transform="translate(0)"><path class="a" d="M87.045,4.571l-.482-1.022.482-1.022a.3.3,0,0,0-.269-.425H85.453V3.548a.9.9,0,0,1-.894.894H83.483L84.7,3.813h0a.3.3,0,0,0,.159-.263V1.25a.3.3,0,0,0-.3-.3H81.418V.3a.3.3,0,1,0-.6,0v8.54a.3.3,0,0,0,.6,0V3.846h1.92l-1.132.587-.015.009h0l0,0-.016.011-.011.008-.008.007a.3.3,0,0,0,.15.524h0l.015,0h4.455A.3.3,0,0,0,87.045,4.571Z" transform="translate(-80.822)"/></g></svg>