<svg xmlns="http://www.w3.org/2000/svg" xmlns:xlink="http://www.w3.org/1999/xlink" width="18.638" height="20.642" viewBox="0 0 18.638 20.642">
  <defs>
    <filter id="Ellipse_3" x="5.638" y="7.642" width="13" height="13" filterUnits="userSpaceOnUse">
      <feOffset dy="1" input="SourceAlpha"/>
      <feGaussianBlur stdDeviation="0.5" result="blur"/>
      <feFlood flood-opacity="0.161"/>
      <feComposite operator="in" in2="blur"/>
      <feComposite in="SourceGraphic"/>
    </filter>
  </defs>
  <g id="Group_34" data-name="Group 34" transform="translate(-137.862 -246.858)">
    <path id="f102" d="M15.067-53.8a3.985,3.985,0,0,1,1.209,2.926,3.985,3.985,0,0,1-1.209,2.926l-3.944,3.912a1.038,1.038,0,0,0-.254.684,3.3,3.3,0,0,0,.032.811,4.928,4.928,0,0,1,0,.8,1.061,1.061,0,0,1-.254.7l-.827.859a1.156,1.156,0,0,1-.732.223,5.548,5.548,0,0,1-2.735-1.081,2.731,2.731,0,0,0,.954-.573,4.1,4.1,0,0,0,1.781.636,2.928,2.928,0,0,0-.382-1.256,11.233,11.233,0,0,0-1.272-1.988,1.953,1.953,0,0,1-.541,2.067,1.7,1.7,0,0,1-.445.318,1.7,1.7,0,0,1-.573.223q-.159.032-.286.064H5.43a2.1,2.1,0,0,1-1.495-.6,2.189,2.189,0,0,1-.6-1.368v-.286q.032-.159.064-.286v-.032a1.716,1.716,0,0,1,.223-.541V-44.7a1.957,1.957,0,0,1,.318-.413,2.046,2.046,0,0,1,1.495-.636,2.027,2.027,0,0,1,.859.191l-.35-.35a15.532,15.532,0,0,0-2.847-2.306,4.668,4.668,0,0,0-2.083-.843,3.433,3.433,0,0,0,.509,1.495A13.508,13.508,0,0,0,3.14-45.214,2.65,2.65,0,0,0,2.727-44.2,13.22,13.22,0,0,1,.389-47.567q-.716-1.59-.175-2.226l.859-.859a1.322,1.322,0,0,1,.7-.286,1.629,1.629,0,0,1,.8.064A1.443,1.443,0,0,0,4.063-51.1l3.912-3.944A3.986,3.986,0,0,1,10.9-56.25a3.985,3.985,0,0,1,2.926,1.209.844.844,0,0,1,.62-.254.844.844,0,0,1,.62.254.844.844,0,0,1,.254.62.844.844,0,0,1-.254.62Z" transform="translate(137.881 303.108)" fill="#303c42"/>
    <g transform="matrix(1, 0, 0, 1, 137.86, 246.86)" filter="url(#Ellipse_3)">
      <circle id="Ellipse_3-2" data-name="Ellipse 3" cx="5" cy="5" r="5" transform="translate(7.14 8.14)" fill="#cd5a5a"/>
    </g>
  </g>
</svg>
