<svg xmlns="http://www.w3.org/2000/svg" width="17.939" height="17.939" viewBox="0 0 17.939 17.939"><defs><style>.a{fill:#fff;}</style></defs><path class="a" d="M8.97,0a8.97,8.97,0,1,0,8.969,8.969A8.98,8.98,0,0,0,8.97,0Zm4.955,8.313h0l-2.6,1.879,1,3.056a.478.478,0,0,1,.024.151.484.484,0,0,1-.766.393L8.969,11.9,6.352,13.792a.484.484,0,0,1-.767-.393.475.475,0,0,1,.025-.151l1-3.056-2.6-1.879h0A.483.483,0,0,1,4.3,7.439H7.512l1-3.042a.484.484,0,0,1,.925,0l.995,3.042h3.214a.483.483,0,0,1,.284.874Z"/></svg>