<svg xmlns="http://www.w3.org/2000/svg" width="17.5" height="17.5" viewBox="0 0 17.5 17.5"><defs><style>.a{fill:#cd5a5a;}.b{fill:#fff;}</style></defs><path class="a" d="M8.75,0A8.75,8.75,0,1,0,17.5,8.75,8.76,8.76,0,0,0,8.75,0Z"/><g transform="translate(3.366 3.533)"><path class="b" d="M8.957,5.537a3.487,3.487,0,0,0,0-1.052L10.014,3.6a.209.209,0,0,0,.046-.263L9.1,1.67a.209.209,0,0,0-.251-.092l-1.29.476a3.758,3.758,0,0,0-.915-.526L6.406.171A.209.209,0,0,0,6.2,0H4.28a.209.209,0,0,0-.2.171L3.837,1.528a3.758,3.758,0,0,0-.915.526l-1.29-.472a.209.209,0,0,0-.251.092L.421,3.341A.209.209,0,0,0,.467,3.6l1.057.881a3.487,3.487,0,0,0,0,1.052L.467,6.423a.209.209,0,0,0-.046.259l.96,1.67a.209.209,0,0,0,.251.092l1.29-.472a3.758,3.758,0,0,0,.915.526l.238,1.357a.209.209,0,0,0,.2.167H6.2a.209.209,0,0,0,.2-.171l.238-1.357a3.758,3.758,0,0,0,.915-.526l1.29.472A.209.209,0,0,0,9.1,8.348l.96-1.67a.209.209,0,0,0-.046-.263ZM5.24,7.1A2.088,2.088,0,1,1,7.328,5.011,2.088,2.088,0,0,1,5.24,7.1Z"/></g></svg>