<svg xmlns="http://www.w3.org/2000/svg" width="8.919" height="7.432" viewBox="0 0 8.919 7.432"><defs><style>.a{fill:#fff;}</style></defs><path class="a" d="M1.115,4.23A1.1,1.1,0,0,1,0,3.115,1.1,1.1,0,0,1,1.115,2a.351.351,0,0,1,.372.372.351.351,0,0,1-.372.372.351.351,0,0,0-.372.372.351.351,0,0,0,.372.372.351.351,0,0,1,.372.372A.351.351,0,0,1,1.115,4.23Z" transform="translate(0 -2)"/><g transform="translate(0 5.946)"><path class="a" d="M1.115,19.486A1.1,1.1,0,0,1,0,18.372.351.351,0,0,1,.372,18a.351.351,0,0,1,.372.372.351.351,0,0,0,.372.372.372.372,0,0,1,0,.743Z" transform="translate(0 -18)"/></g><g transform="translate(0.743 1.486)"><path class="a" d="M9.8,11.946H2.372a.372.372,0,1,1,0-.743H9.432V6.743H2.372a.372.372,0,0,1,0-.743H9.8a.351.351,0,0,1,.372.372v5.2A.351.351,0,0,1,9.8,11.946Z" transform="translate(-2 -6)"/></g><g transform="translate(0.743)"><path class="a" d="M9.061,4.23a.351.351,0,0,1-.372-.372V2.743H2.372A.351.351,0,0,1,2,2.372.351.351,0,0,1,2.372,2H9.061a.351.351,0,0,1,.372.372V3.858A.351.351,0,0,1,9.061,4.23Z" transform="translate(-2 -2)"/></g><g transform="translate(0 0.743)"><g transform="translate(0 0)"><path class="a" d="M.372,9.946A.351.351,0,0,1,0,9.574v-5.2A.351.351,0,0,1,.372,4a.351.351,0,0,1,.372.372v5.2A.351.351,0,0,1,.372,9.946Z" transform="translate(0 -4)"/></g></g><g transform="translate(5.946 3.716)"><circle class="a" cx="0.743" cy="0.743" r="0.743"/></g></svg>