<svg width="187" height="109" viewBox="0 0 187 109" fill="none" xmlns="http://www.w3.org/2000/svg">
<path d="M9.0918 41.4844C12.2582 41.4844 14.834 38.9086 14.834 35.7422C14.834 32.5758 12.2582 30 9.0918 30C5.92537 30 3.34961 32.5758 3.34961 35.7422C3.34961 38.9086 5.92537 41.4844 9.0918 41.4844Z" fill="#6FF18C"/>
<path d="M15.1338 41.8747C13.5775 43.4078 11.4436 44.3555 9.0918 44.3555C6.73997 44.3555 4.60609 43.4078 3.04979 41.8747C1.17984 43.5409 0 45.966 0 48.6621V60.3379C0 61.1308 0.642632 61.7734 1.43555 61.7734H2.87109V77.5645C2.87109 78.3574 3.51373 79 4.30664 79H13.877C14.6699 79 15.3125 78.3574 15.3125 77.5645V61.7734H16.748C17.541 61.7734 18.1836 61.1308 18.1836 60.3379V48.6621C18.1836 45.966 17.0038 43.5409 15.1338 41.8747Z" fill="#6FF18C"/>
<path d="M33.0918 65.4844C36.2582 65.4844 38.834 62.9086 38.834 59.7422C38.834 56.5758 36.2582 54 33.0918 54C29.9254 54 27.3496 56.5758 27.3496 59.7422C27.3496 62.9086 29.9254 65.4844 33.0918 65.4844Z" fill="#6FF18C"/>
<path d="M39.1338 65.8747C37.5775 67.4078 35.4436 68.3555 33.0918 68.3555C30.74 68.3555 28.6061 67.4078 27.0498 65.8747C25.1798 67.5409 24 69.966 24 72.6621V84.3379C24 85.1308 24.6426 85.7734 25.4355 85.7734H26.8711V101.564C26.8711 102.357 27.5137 103 28.3066 103H37.877C38.6699 103 39.3125 102.357 39.3125 101.564V85.7734H40.748C41.541 85.7734 42.1836 85.1308 42.1836 84.3379V72.6621C42.1836 69.966 41.0038 67.5409 39.1338 65.8747Z" fill="#6FF18C"/>
<path d="M33.0918 11.4844C36.2582 11.4844 38.834 8.90862 38.834 5.74219C38.834 2.57576 36.2582 0 33.0918 0C29.9254 0 27.3496 2.57576 27.3496 5.74219C27.3496 8.90862 29.9254 11.4844 33.0918 11.4844Z" fill="#6FF18C"/>
<path d="M39.1338 11.8747C37.5775 13.4078 35.4436 14.3555 33.0918 14.3555C30.74 14.3555 28.6061 13.4078 27.0498 11.8747C25.1798 13.5409 24 15.966 24 18.6621V30.3379C24 31.1308 24.6426 31.7734 25.4355 31.7734H26.8711V47.5645C26.8711 48.3574 27.5137 49 28.3066 49H37.877C38.6699 49 39.3125 48.3574 39.3125 47.5645V31.7734H40.748C41.541 31.7734 42.1836 31.1308 42.1836 30.3379V18.6621C42.1836 15.966 41.0038 13.5409 39.1338 11.8747Z" fill="#6FF18C"/>
<path d="M57.0918 41.4844C60.2582 41.4844 62.834 38.9086 62.834 35.7422C62.834 32.5758 60.2582 30 57.0918 30C53.9254 30 51.3496 32.5758 51.3496 35.7422C51.3496 38.9086 53.9254 41.4844 57.0918 41.4844Z" fill="#6FF18C"/>
<path d="M63.1338 41.8747C61.5775 43.4078 59.4436 44.3555 57.0918 44.3555C54.74 44.3555 52.6061 43.4078 51.0498 41.8747C49.1798 43.5409 48 45.966 48 48.6621V60.3379C48 61.1308 48.6426 61.7734 49.4355 61.7734H50.8711V77.5645C50.8711 78.3574 51.5137 79 52.3066 79H61.877C62.6699 79 63.3125 78.3574 63.3125 77.5645V61.7734H64.748C65.541 61.7734 66.1836 61.1308 66.1836 60.3379V48.6621C66.1836 45.966 65.0038 43.5409 63.1338 41.8747Z" fill="#6FF18C"/>
<path d="M81.0918 11.4844C84.2582 11.4844 86.834 8.90862 86.834 5.74219C86.834 2.57576 84.2582 0 81.0918 0C77.9254 0 75.3496 2.57576 75.3496 5.74219C75.3496 8.90862 77.9254 11.4844 81.0918 11.4844Z" fill="#6FF18C"/>
<path d="M87.1338 11.8747C85.5775 13.4078 83.4436 14.3555 81.0918 14.3555C78.74 14.3555 76.6061 13.4078 75.0498 11.8747C73.1798 13.5409 72 15.966 72 18.6621V30.3379C72 31.1308 72.6426 31.7734 73.4355 31.7734H74.8711V47.5645C74.8711 48.3574 75.5137 49 76.3066 49H85.877C86.6699 49 87.3125 48.3574 87.3125 47.5645V31.7734H88.748C89.541 31.7734 90.1836 31.1308 90.1836 30.3379V18.6621C90.1836 15.966 89.0038 13.5409 87.1338 11.8747Z" fill="#6FF18C"/>
<path d="M81.0918 65.4844C84.2582 65.4844 86.834 62.9086 86.834 59.7422C86.834 56.5758 84.2582 54 81.0918 54C77.9254 54 75.3496 56.5758 75.3496 59.7422C75.3496 62.9086 77.9254 65.4844 81.0918 65.4844Z" fill="#6FF18C"/>
<path d="M87.1338 65.8747C85.5775 67.4078 83.4436 68.3555 81.0918 68.3555C78.74 68.3555 76.6061 67.4078 75.0498 65.8747C73.1798 67.5409 72 69.966 72 72.6621V84.3379C72 85.1308 72.6426 85.7734 73.4355 85.7734H74.8711V101.564C74.8711 102.357 75.5137 103 76.3066 103H85.877C86.6699 103 87.3125 102.357 87.3125 101.564V85.7734H88.748C89.541 85.7734 90.1836 85.1308 90.1836 84.3379V72.6621C90.1836 69.966 89.0038 67.5409 87.1338 65.8747Z" fill="#6FF18C"/>
<path d="M129.092 65.4844C132.258 65.4844 134.834 62.9086 134.834 59.7422C134.834 56.5758 132.258 54 129.092 54C125.925 54 123.35 56.5758 123.35 59.7422C123.35 62.9086 125.925 65.4844 129.092 65.4844Z" fill="#6FF18C"/>
<path d="M135.134 65.8747C133.578 67.4078 131.444 68.3555 129.092 68.3555C126.74 68.3555 124.606 67.4078 123.05 65.8747C121.18 67.5409 120 69.966 120 72.6621V84.3379C120 85.1308 120.643 85.7734 121.436 85.7734H122.871V101.564C122.871 102.357 123.514 103 124.307 103H133.877C134.67 103 135.313 102.357 135.313 101.564V85.7734H136.748C137.541 85.7734 138.184 85.1308 138.184 84.3379V72.6621C138.184 69.966 137.004 67.5409 135.134 65.8747Z" fill="#6FF18C"/>
<path d="M105.092 41.4844C108.258 41.4844 110.834 38.9086 110.834 35.7422C110.834 32.5758 108.258 30 105.092 30C101.925 30 99.3496 32.5758 99.3496 35.7422C99.3496 38.9086 101.925 41.4844 105.092 41.4844Z" fill="#6FF18C"/>
<path d="M111.134 41.8747C109.578 43.4078 107.444 44.3555 105.092 44.3555C102.74 44.3555 100.606 43.4078 99.0498 41.8747C97.1798 43.5409 96 45.966 96 48.6621V60.3379C96 61.1308 96.6426 61.7734 97.4355 61.7734H98.8711V77.5645C98.8711 78.3574 99.5137 79 100.307 79H109.877C110.67 79 111.313 78.3574 111.313 77.5645V61.7734H112.748C113.541 61.7734 114.184 61.1308 114.184 60.3379V48.6621C114.184 45.966 113.004 43.5409 111.134 41.8747Z" fill="#6FF18C"/>
<path d="M177.092 11.4844C180.258 11.4844 182.834 8.90862 182.834 5.74219C182.834 2.57576 180.258 0 177.092 0C173.925 0 171.35 2.57576 171.35 5.74219C171.35 8.90862 173.925 11.4844 177.092 11.4844Z" fill="#6FF18C"/>
<path d="M183.134 11.8747C181.578 13.4078 179.444 14.3555 177.092 14.3555C174.74 14.3555 172.606 13.4078 171.05 11.8747C169.18 13.5409 168 15.966 168 18.6621V30.3379C168 31.1308 168.643 31.7734 169.436 31.7734H170.871V47.5645C170.871 48.3574 171.514 49 172.307 49H181.877C182.67 49 183.313 48.3574 183.313 47.5645V31.7734H184.748C185.541 31.7734 186.184 31.1308 186.184 30.3379V18.6621C186.184 15.966 185.004 13.5409 183.134 11.8747Z" fill="#6FF18C"/>
<path d="M177.092 71.4844C180.258 71.4844 182.834 68.9086 182.834 65.7422C182.834 62.5758 180.258 60 177.092 60C173.925 60 171.35 62.5758 171.35 65.7422C171.35 68.9086 173.925 71.4844 177.092 71.4844Z" fill="#6FF18C"/>
<path d="M183.134 71.8747C181.578 73.4078 179.444 74.3555 177.092 74.3555C174.74 74.3555 172.606 73.4078 171.05 71.8747C169.18 73.5409 168 75.966 168 78.6621V90.3379C168 91.1308 168.643 91.7734 169.436 91.7734H170.871V107.564C170.871 108.357 171.514 109 172.307 109H181.877C182.67 109 183.313 108.357 183.313 107.564V91.7734H184.748C185.541 91.7734 186.184 91.1308 186.184 90.3379V78.6621C186.184 75.966 185.004 73.5409 183.134 71.8747Z" fill="#6FF18C"/>
<path d="M153.092 41.4844C156.258 41.4844 158.834 38.9086 158.834 35.7422C158.834 32.5758 156.258 30 153.092 30C149.925 30 147.35 32.5758 147.35 35.7422C147.35 38.9086 149.925 41.4844 153.092 41.4844Z" fill="#6FF18C"/>
<path d="M159.134 41.8747C157.578 43.4078 155.444 44.3555 153.092 44.3555C150.74 44.3555 148.606 43.4078 147.05 41.8747C145.18 43.5409 144 45.966 144 48.6621V60.3379C144 61.1308 144.643 61.7734 145.436 61.7734H146.871V77.5645C146.871 78.3574 147.514 79 148.307 79H157.877C158.67 79 159.313 78.3574 159.313 77.5645V61.7734H160.748C161.541 61.7734 162.184 61.1308 162.184 60.3379V48.6621C162.184 45.966 161.004 43.5409 159.134 41.8747Z" fill="#6FF18C"/>
<path d="M129.092 11.4844C132.258 11.4844 134.834 8.90862 134.834 5.74219C134.834 2.57576 132.258 0 129.092 0C125.925 0 123.35 2.57576 123.35 5.74219C123.35 8.90862 125.925 11.4844 129.092 11.4844Z" fill="#6FF18C"/>
<path d="M135.134 11.8747C133.578 13.4078 131.444 14.3555 129.092 14.3555C126.74 14.3555 124.606 13.4078 123.05 11.8747C121.18 13.5409 120 15.966 120 18.6621V30.3379C120 31.1308 120.643 31.7734 121.436 31.7734H122.871V47.5645C122.871 48.3574 123.514 49 124.307 49H133.877C134.67 49 135.313 48.3574 135.313 47.5645V31.7734H136.748C137.541 31.7734 138.184 31.1308 138.184 30.3379V18.6621C138.184 15.966 137.004 13.5409 135.134 11.8747Z" fill="#6FF18C"/>
</svg>
