<svg width="580" height="220" fill="none" xmlns="http://www.w3.org/2000/svg"><path d="M17.392 100.69l1.52-2.308a8.6 8.6 0 001.35-5.756l-.68-5.636s-.306-2.978-5.837-.995c-5.53 1.983-5.858 2.092-5.426 3.796 0 0 1.546 2.155 5.315 1.831l3.758 9.068z" fill="#E0A78F"/><path d="M67.033 37.616s-1.44 14.68-17.798 26.492c-17.442 12.594-4.445 47.456 27.582 45.83 34.791-1.765 49.227-47.275 26.531-81.843l-36.315 9.52z" fill="#A74B22"/><path d="M91.434 80.919l-21.088 6.034c-6.085 1.742-10.962 8.316-9.123 14.475L80.21 145.18l32.133-1.485 11.296-47.401c.967-6.44-5.592-12.288-11.95-13.025l-20.255-2.35" fill="#7B97FB"/><path d="M70.347 86.953l21.087-6.034 20.256 2.35-.42.358c-11.555 9.864-27.977 11.199-40.923 3.326zm68.435 52.587l-24.009 21.697 4.2 7.385 27.725-17.206c4.485-2.912 6.532-8.674 4.537-13.696a12.2 12.2 0 00-.319-.736l-3.218-6.817-8.916 9.373z" fill="#E0A78F"/><path d="M131.382 96.655l19.977 34.787c.975 2.49-.31 5.302-2.809 6.145l-9.628 3.248a3.922 3.922 0 01-4.145-1.057c-3.545-3.837-19.112-15.929-18.621-30.703l-5.533-10.09 1.066-15.716c10.321 1.267 17.775 8.595 19.693 13.386" fill="#7B97FB"/><path d="M118.734 119.616l4.466-14.951a.434.434 0 00-.282-.538.422.422 0 00-.529.288l-4.465 14.95a.432.432 0 00.282.538c.223.07.46-.059.528-.287z" fill="#000"/><path d="M122.794 162.294c-.528.479-3.663 14.681-3.663 14.681l-4.358-15.738 8.021 1.057" fill="#E0A78F"/><path d="M113.777 159.534l5.463 19.562c.07.253.328.399.575.327a.476.476 0 00.322-.586l-5.463-19.562a.465.465 0 00-.576-.327.475.475 0 00-.321.586z" fill="#D4688F"/><path d="M54.042 101.18L38.11 138.068c-.69 2.586.903 5.231 3.481 5.777l7.511 1.724c1.515.32 2.452 3.985 3.377 2.722 3.088-4.226 20.237-21.928 18.086-36.549l4.361-10.669-4.58-14.12c-10.11 2.463-14.937 9.244-16.304 14.227z" fill="#7B97FB"/><path d="M69.967 122.17l-6.117-14.33a.42.42 0 00-.557-.225.435.435 0 00-.22.568l6.116 14.332a.422.422 0 00.559.223.435.435 0 00.22-.568z" fill="#000"/><path d="M17.053 98.481l-7.483 3.122 30.15 43.916c2.389 4.885 8.62 6.239 12.76 2.771 3.44-2.883 4.045-8.012 1.373-11.643l-36.8-38.166" fill="#E0A78F"/><path d="M10.377 103.121s-6.287-1.93-8.675-11.886a3.474 3.474 0 01.866-3.207c1.25-1.297 4.925-4.676 7.51-3.603l5.042 4.313 2.273 11.952-7.016 2.431z" fill="#E0A78F"/><path d="M15.57 86.81l-.293-16.82c-.017-1.002-.821-1.804-1.806-1.802-.983.003-1.781.808-1.795 1.81L11.5 82.805l-1.274.552-7.214-11.333a1.62 1.62 0 00-2.322-.453 1.687 1.687 0 00-.509 2.125L8.32 89.79l7.25-2.981" fill="#E0A78F"/><path d="M15.51 85.16c-.012 0-1.84.22-3.693.832-.926.307-1.86.71-2.586 1.254-.721.537-1.262 1.254-1.263 2.157 0 .147.014.297.044.45l.308-.062-.31.047c.005.043.096.606.658 1.162.562.556 1.58 1.07 3.34 1.068.494 0 1.048-.04 1.67-.13l-.044-.316-.146-.282c-.021.012-.633.342-1.252 1.048a4.928 4.928 0 00-1.244 3.3c0 .32.028.659.09 1.013.03.173.194.29.364.258a.318.318 0 00.254-.37c-.056-.32-.08-.62-.08-.9a4.275 4.275 0 011.084-2.875 4.788 4.788 0 01.994-.86l.065-.04.018-.01a.322.322 0 00.152-.38.314.314 0 00-.343-.218c-.596.086-1.12.123-1.582.123-1.646-.002-2.473-.466-2.903-.89a1.83 1.83 0 01-.401-.572l-.063-.176-.01-.042-.001-.007-.112.02.112-.017v-.003l-.112.02.112-.017-.003-.015a1.738 1.738 0 01-.032-.327c0-.623.367-1.16 1.008-1.643.954-.72 2.462-1.228 3.719-1.535a22.462 22.462 0 012.261-.43.319.319 0 00.275-.356.315.315 0 00-.348-.28" fill="#B9635E"/><path d="M77.68 53.976c.36 3.238-1.927 6.16-5.106 6.525-3.18.365-6.049-1.963-6.408-5.2-.359-3.238 1.928-6.16 5.107-6.524 3.18-.366 6.048 1.962 6.407 5.2" fill="#E0A78F"/><path d="M68.743 54.377l-.058-.099.056.101.002-.002-.058-.099.056.101c.008-.006.315-.178.809-.177.757.005 2.02.38 3.483 2.612a.32.32 0 00.449.093.334.334 0 00.09-.458c-1.525-2.352-3.023-2.913-4.022-2.907-.686 0-1.106.25-1.14.269a.334.334 0 00-.111.453.32.32 0 00.444.113" fill="#B9635E"/><path d="M98.772 52.33c.27 3.247 3.073 5.657 6.261 5.382 3.188-.274 5.555-3.127 5.286-6.375-.269-3.247-3.072-5.656-6.261-5.382s-5.556 3.128-5.286 6.375z" fill="#E0A78F"/><path d="M107.831 50.323a1.982 1.982 0 00-.637-.092c-.46-.001-1.136.13-1.843.67-.708.536-1.443 1.466-2.075 3.036a.332.332 0 00.177.43.322.322 0 00.423-.18c.6-1.49 1.271-2.31 1.862-2.758.591-.448 1.11-.537 1.456-.539.141 0 .252.016.326.031l.08.02.016.004.009-.03-.009.03.009-.03-.009.03a.322.322 0 00.413-.201.331.331 0 00-.198-.421" fill="#B9635E"/><path d="M106.744 37.245c.865 10.422-7.326 19.638-18.292 20.581-10.968.943-20.56-6.743-21.424-17.166-.864-10.425 7.326-19.64 18.293-20.582 10.968-.943 20.559 6.743 21.423 17.167z" fill="#A74B22"/><path d="M94.776 64.492s-2.303 2.55-4.533 3.32c-2.23.768-4.592-.798-4.622-.817l-2.831-1.803.537 19.44.322.296c4.219 3.898 9.791 3.478 13.348-1.005l.52-.656-2.74-18.775" fill="#E0A78F"/><path d="M80.78 62.79s4.14 11.03 9.848 10.428c4.692-.496 5.122-11.15 5.122-11.15l-14.97.722z" fill="#1E0B02"/><path d="M102.908 40.904a68.756 68.756 0 01-.478 15.907c-.576 3.895-2.905 6.792-6.338 9.266l-.625.451c-3.632 2.619-8.577 3.122-12.66 1.291-4.118-1.847-7.12-4.504-8.325-8.518-2.192-7.299-3.085-15.523-3.085-15.523s-2.743-17.09 14.278-18.328c17.021-1.237 17.233 15.454 17.233 15.454" fill="#E0A78F"/><path d="M86.185 51.197l.206 2.486.114.224.236.077 1.668-.143a.33.33 0 00.296-.357.327.327 0 00-.35-.3l-1.346.115-.179-2.157a.324.324 0 00-.35-.3.328.328 0 00-.295.355" fill="#B9635E"/><path d="M74.218 43.228l8.921-1.599s-1.002-2.302-4.605-1.604c-3.685.713-4.316 3.203-4.316 3.203m24.712-2.125l-9.059-.052s.61-2.442 4.276-2.369c3.751.074 4.783 2.42 4.783 2.42z" fill="#000"/><path d="M81.662 48.195a1.4 1.4 0 01-1.26 1.52 1.389 1.389 0 01-1.492-1.282 1.4 1.4 0 011.26-1.52 1.388 1.388 0 011.492 1.282zm13.5-1.16a1.4 1.4 0 01-1.26 1.52 1.387 1.387 0 01-1.492-1.283 1.397 1.397 0 011.26-1.52 1.387 1.387 0 011.492 1.283z" fill="#1E0B02"/><path d="M82.666 57.846c.03.014 1.395.62 3.712.62 1.712 0 3.944-.332 6.53-1.477a.332.332 0 00.167-.433.32.32 0 00-.426-.172c-2.503 1.108-4.641 1.423-6.271 1.423-1.102 0-1.973-.144-2.564-.287a7.384 7.384 0 01-.67-.195l-.168-.061-.049-.021a.322.322 0 00-.427.17.331.331 0 00.166.433" fill="#000"/><path d="M102.584 36.994s-24.945 3.107-25.128-11.927c0 0 21.285-8.167 25.128 11.927" fill="#A74B22"/><path d="M70.688 39.75s8.48-4.502 7.72-13.676c0 0-8.924 1.832-7.72 13.675" fill="#A74B22"/><path d="M163.519 133.34l-8.73 41.326-5.765-.303s1.847-25.566 3.986-42.663c.34-2.711 3.773-4.925 6.401-4.362 2.461.527 4.623 3.494 4.108 6.002" fill="#E8B499"/><path d="M154.122 171.938s2.841 4.528 1.087 10.296l1.296 5.635c.201.876-.217 1.792-.981 2.148-.826.385-1.77-.015-2.132-.905l-1.293-3.185-.136 1.219c-.217 1.934.165 3.881 1.083 5.525l2.616 4.678c.297.533.305 1.207.019 1.758-.552 1.067-1.897 1.205-2.588.267l-4.143-5.637c-1.606-2.185-2.265-5.042-1.808-7.84l2.454-15.039 4.526 1.08zM153.01 131.7l5.12-35.322 11.897 3.942-6.63 33.511-10.387-2.131" fill="#E8B499"/><path d="M170.949 81.713s-8.035.974-12.163 11.814c-4.151 10.898-9.224 22.268-9.224 22.268L167.546 126l3.403-44.287" fill="#4E8985"/><path d="M224.05 139.285l39.281-21.785-2.378-8.502s-27.377 11.873-42.232 20.132c-2.357 1.311-3.13 6.16-1.657 8.446 1.38 2.141 4.881 3.11 6.986 1.709z" fill="#E8B499"/><path d="M227.293 131.862l-8.133-35.484-11.896 3.942 9.349 36.314 10.68-4.772" fill="#E8B499"/><path d="M207.873 81.434s8.692 1.049 13.111 12.093a975.752 975.752 0 008.637 20.816l-17.33 10.933-4.418-43.842" fill="#4E8985"/><path d="M211.907 83.088c-3.083-1.944-8.095-2.43-8.095-2.43l-13.93 1.431-13.931-1.431s-5.011.486-8.095 2.43l-.113 32.672-6.224 44.912 57.102.315-6.552-44.64-.162-33.259" fill="#4E8985"/><path d="M170.949 81.713l16.417-4.393h5.661l14.846 4.114c-7.592 7.246-26.436 13.187-36.076.616l-.848-.337" fill="#E8B499"/><path d="M166.926 125.314l.998-10.461.001-.066-1.18-15.71a.382.382 0 00-.408-.356.385.385 0 00-.35.415l1.178 15.676-.994 10.426a.385.385 0 00.341.423.381.381 0 00.414-.347m46.537-.882l-.917-9.615 1.523-15.821a.386.386 0 00-.341-.423.383.383 0 00-.415.347l-1.527 15.859v.074l.921 9.654a.38.38 0 10.756-.075" fill="#000"/><path d="M214.269 66.662a11.056 11.056 0 01.278-4.018c1.686-6.583-.243-12.191-3.65-16.38-3.083-3.792-3.851-9.399-3.851-9.399C204.782 29.269 197.112 24 190.131 24c-6.982 0-14.628 4.966-16.892 12.56 0 0-1.021 6.014-3.874 9.703-3.303 4.27-5.337 9.798-3.651 16.381a11.08 11.08 0 01.279 4.018c-.117.993-.384 2.023-.941 2.737h50.157c-.557-.714-.823-1.743-.94-2.737" fill="#DA4412"/><path d="M181.436 52.212c.076 2.76-2.06 5.061-4.77 5.139-2.711.078-4.97-2.097-5.047-4.857-.077-2.76 2.059-5.06 4.769-5.14 2.711-.077 4.971 2.097 5.048 4.858z" fill="#E8B499"/><path d="M173.859 51.9h.002a1.42 1.42 0 01.539-.096c.317.001.745.084 1.249.428.503.346 1.082.96 1.663 2.038a.271.271 0 00.372.11.283.283 0 00.109-.379c-.612-1.135-1.244-1.825-1.837-2.232-.591-.408-1.142-.524-1.556-.523-.464 0-.755.14-.781.152a.283.283 0 00-.127.375.272.272 0 00.367.128" fill="#C47268"/><path d="M199.362 52.353c0 2.761 2.199 5 4.91 5 2.713 0 4.911-2.239 4.911-5 0-2.762-2.198-5-4.911-5-2.711 0-4.91 2.238-4.91 5z" fill="#E8B499"/><path d="M207.152 51.316a1.806 1.806 0 00-.719-.132c-.411 0-.966.116-1.56.536-.594.419-1.225 1.133-1.82 2.318a.281.281 0 00.119.375c.134.07.3.017.369-.12.565-1.125 1.142-1.76 1.645-2.114.502-.354.934-.435 1.247-.436.162 0 .291.023.378.045l.094.03.021.007a.273.273 0 00.364-.14.28.28 0 00-.138-.37" fill="#C47268"/><path d="M205.685 42.832c0 8.673-6.905 15.703-15.423 15.703-8.516 0-15.421-7.03-15.421-15.703 0-8.672 6.905-15.704 15.421-15.704 8.518 0 15.423 7.032 15.423 15.704" fill="#DA4412"/><path d="M195.143 62.333s-2.125 1.986-4.062 2.473c-1.939.488-3.824-1.005-3.849-1.024l-2.265-1.728-.908 16.455.251.274c3.29 3.598 8.029 3.648 11.348.12l.485-.516-1-16.054z" fill="#E8B499"/><path d="M183.437 59.88s2.725 9.615 7.59 9.52c3.998-.077 5.108-9.042 5.108-9.042l-12.698-.478" fill="#1E0B02"/><path d="M203.655 43.004a58.238 58.238 0 01-1.518 13.398c-.759 3.247-2.927 5.525-6 7.366l-.56.335c-3.25 1.947-7.462 2.014-10.781.17-3.349-1.858-5.698-4.32-6.434-7.797-1.341-6.323-1.519-13.333-1.519-13.333s-1.119-14.63 13.342-14.441c14.46.191 13.47 14.302 13.47 14.302" fill="#E8B499"/><path d="M188.812 51.017v2.142a.28.28 0 00.275.28h1.418a.277.277 0 00.275-.28.278.278 0 00-.275-.28h-1.144v-1.862a.277.277 0 00-.274-.28.277.277 0 00-.275.28" fill="#C47268"/><path d="M179.265 42.883l7.646-.702s-.685-2.016-3.776-1.69c-3.163.335-3.87 2.392-3.87 2.392zm21.016 0l-7.645-.702s.684-2.016 3.776-1.69c3.163.335 3.869 2.392 3.869 2.392" fill="#000"/><path d="M185.621 55.135h8.349s-.32 2.218-4.323 2.218c-3.286 0-4.026-2.218-4.026-2.218z" fill="#fff"/><path d="M186.252 47.833c-.033-.02-.953-.81-2.222-.82-.632-.003-1.351.222-1.994.836a.395.395 0 00-.019.549.377.377 0 00.539.019c.514-.484 1.007-.625 1.474-.628.467 0 .909.159 1.232.325.161.082.291.165.38.226l.099.072.024.018.004.003a.376.376 0 00.536-.054.393.393 0 00-.053-.546m11.211.035c-.018-.018-.212-.23-.56-.443a2.838 2.838 0 00-1.48-.431c-.625-.002-1.352.226-2.097.836a.392.392 0 00-.058.546.376.376 0 00.535.06c.635-.517 1.173-.664 1.62-.666.448 0 .821.158 1.086.32.132.081.236.162.304.221l.075.069.016.017.003.002.106-.104-.107.102.001.002.106-.104-.107.102a.375.375 0 00.538.02.393.393 0 00.019-.549" fill="#1E0B02"/><path d="M177.87 53.45h10.039V42.741H177.87V53.45z" fill="#EDC5B1"/><path d="M182.296 48.52a.377.377 0 01-.279-.123.395.395 0 01.019-.548c.64-.61 1.352-.837 1.982-.837a.06.06 0 01.012.001c.706.006 1.303.253 1.7.473l.609.843a.377.377 0 01-.57.105l-.004-.004-.024-.018-.099-.072a3.564 3.564 0 00-.38-.227c-.322-.165-.763-.324-1.228-.324h-.004c-.467.003-.96.144-1.474.628a.375.375 0 01-.26.104" fill="#52433D"/><path d="M197.726 53.45a3.14 3.14 0 01-.417-.028l-3.673-4.908a.375.375 0 00.168-.078c.635-.517 1.172-.664 1.62-.666.447 0 .821.158 1.085.32.133.081.236.162.304.221l.076.069.016.017.002.002a.376.376 0 00.537.017.39.39 0 00.019-.548 2.724 2.724 0 00-.56-.443 2.835 2.835 0 00-1.479-.431h-.008c-.623 0-1.348.228-2.09.836a.383.383 0 00-.103.132l-1.57-2.097s1.437-3.124 4.172-3.124c.087 0 .174.003.263.01l5.604 7.747s-1.517 2.952-3.966 2.952" fill="#EDC5B1"/><path d="M197.184 48.52a.376.376 0 01-.277-.12l-.002-.003-.016-.017-.076-.069a2.257 2.257 0 00-.304-.221 2.073 2.073 0 00-1.085-.32c-.448.002-.985.15-1.62.666a.377.377 0 01-.168.078l-.413-.552a.395.395 0 01.103-.132c.742-.608 1.467-.836 2.09-.836h.008c.625 0 1.132.218 1.479.431.348.214.543.425.56.443a.39.39 0 01-.019.548.37.37 0 01-.26.105" fill="#52433D"/><path d="M188.353 48.133h-.196c0 1.486-.591 2.83-1.547 3.803a5.216 5.216 0 01-7.471 0 5.412 5.412 0 01-1.548-3.803c0-1.487.592-2.83 1.548-3.804a5.216 5.216 0 017.471 0 5.413 5.413 0 011.547 3.804h.393c0-3.193-2.541-5.78-5.676-5.78-3.134 0-5.676 2.587-5.676 5.78 0 3.192 2.542 5.78 5.676 5.78 3.135 0 5.676-2.588 5.676-5.78h-.197zm13.799 0h-.196c0 1.486-.591 2.83-1.547 3.803a5.22 5.22 0 01-3.736 1.577 5.219 5.219 0 01-3.736-1.576 5.411 5.411 0 01-1.547-3.804 5.41 5.41 0 011.547-3.804 5.218 5.218 0 017.472 0 5.413 5.413 0 011.547 3.804h.392c0-3.193-2.54-5.78-5.675-5.78-3.134 0-5.676 2.587-5.676 5.78 0 3.192 2.542 5.78 5.676 5.78 3.135 0 5.675-2.588 5.675-5.78h-.196z" fill="#fff"/><path d="M188.421 48.32l.111-.037c.223-.07.757-.211 1.358-.211.401 0 .831.063 1.222.243l.162-.365c-.458-.21-.943-.277-1.384-.278-.88 0-1.592.27-1.605.273l.136.375z" fill="#fff"/><path d="M175.451 39.68s12.89-2.5 15.551-12.296c0 0-13.713-4.954-15.551 12.295" fill="#DA4412"/><path d="M203.655 39.68s-12.89-2.5-15.551-12.296c0 0 13.712-4.954 15.551 12.295" fill="#DA4412"/><path d="M384.822 5.562s7.181-9.893 19.905-3.291c13.949 7.238 6.41 22.84 6.41 22.84l-29.976-5.782 3.661-13.767" fill="#A74B22"/><path d="M385.474 32.423c.087 3.132-2.335 5.742-5.411 5.83-3.075.089-5.638-2.378-5.726-5.51-.086-3.13 2.336-5.74 5.412-5.83 3.075-.088 5.639 2.379 5.725 5.51" fill="#E8B499"/><path d="M376.88 32.071h.002c.032-.015.261-.11.612-.11.359.002.846.095 1.418.486.57.391 1.226 1.089 1.886 2.312.082.153.271.21.422.125a.319.319 0 00.123-.43c-.694-1.288-1.412-2.072-2.083-2.534-.672-.461-1.297-.594-1.766-.593-.527 0-.857.16-.886.174a.32.32 0 00-.144.424.309.309 0 00.416.146" fill="#C47268"/><path d="M405.813 32.583c0 3.133 2.494 5.672 5.571 5.672 3.076 0 5.569-2.539 5.569-5.672 0-3.132-2.493-5.672-5.569-5.672-3.077 0-5.571 2.54-5.571 5.672z" fill="#E8B499"/><path d="M414.652 31.407c-.029-.013-.333-.15-.817-.15-.465 0-1.096.131-1.77.608-.674.476-1.389 1.287-2.065 2.63a.32.32 0 00.135.426.31.31 0 00.42-.138c.641-1.274 1.295-1.995 1.865-2.397.571-.401 1.06-.493 1.415-.495.183 0 .331.027.428.051l.108.033.023.009h.001a.31.31 0 00.412-.158.319.319 0 00-.155-.42" fill="#C47268"/><path d="M402.792 45.654s-3.141 2.256-6.003 2.813c-2.862.557-5.645-1.134-5.68-1.154l-3.342-1.958-1.369 18.67.37.31a13.092 13.092 0 0016.756.116l.718-.586-1.45-18.212" fill="#E8B499"/><path d="M386.398 43.392s3.122 10.403 10.305 10.288c5.903-.096 6.856-10.288 6.856-10.288h-17.161z" fill="#1E0B02"/><path d="M410.687 22.71a71.863 71.863 0 01-1.718 15.88c-.86 3.849-4.186 6.548-7.67 8.728l-.635.398c-3.688 2.307-6.737 2.385-10.502.2-3.8-2.205-7.33-5.124-8.167-9.245-1.522-7.495-1.725-15.805-1.725-15.805s-2.138-17.343 14.267-17.113c16.405.23 16.15 16.956 16.15 16.956z" fill="#E8B499"/><path d="M389.729 27.796a1.34 1.34 0 01-1.328 1.352 1.34 1.34 0 01-1.328-1.352 1.34 1.34 0 011.328-1.352 1.34 1.34 0 011.328 1.352zm13.026 0a1.34 1.34 0 01-1.328 1.352 1.34 1.34 0 01-1.328-1.352 1.34 1.34 0 011.328-1.352 1.34 1.34 0 011.328 1.352z" fill="#1E0B02"/><path d="M393.398 31.332v2.166a.32.32 0 00.092.225.309.309 0 00.22.093h1.722a.315.315 0 00.312-.318.315.315 0 00-.312-.316h-1.411v-1.85a.314.314 0 00-.311-.317.315.315 0 00-.312.317" fill="#C47268"/><path d="M383.455 22.083l8.674-.796s-.776-2.289-4.283-1.918c-3.589.38-4.391 2.714-4.391 2.714m22.359 0l-8.674-.796s.776-2.289 4.283-1.918c3.588.38 4.391 2.714 4.391 2.714z" fill="#000"/><path d="M390.74 36.586h8.558s-.403 2.67-4.406 2.67-4.152-2.67-4.152-2.67z" fill="#fff"/><path d="M380.828 31.072s.643-21.243.376-21.848c0 0-7.398 6.96-.376 21.848zm29.24-.15l-1.111-23.066s7.115 7.196 1.111 23.066z" fill="#A74B22"/><path d="M387.693 7.343s-5.089 1.404-4.917 6.492c.174 5.088-3.206 10.09-3.206 10.09l-1.544-5.085s-1.191-9.476 9.667-11.497" fill="#A74B22"/><path d="M386.408 7.763s3.811-2.2 7.594 2.644c3.231 4.135 11.749 8.395 16.794 4.341 0 0-3.214-11.708-15.748-11.47-12.535.238-8.64 4.485-8.64 4.485" fill="#A74B22"/><path d="M368.655 71.112c-25.266 12.883-46.081 36.863-46.081 36.863l13.562 16.635 38.2-24.711-5.681-28.787" fill="#EEC86A"/><path d="M444.658 187.017s-3.014 5.53-.543 12.175l-1.121 6.717c-.175 1.043.383 2.089 1.304 2.45 1 .392 2.08-.148 2.441-1.221l1.293-3.836.247 1.422c.392 2.256.082 4.572-.879 6.571l-2.739 5.69a2.204 2.204 0 00.102 2.066c.725 1.212 2.315 1.275 3.06.121l4.465-6.929c1.731-2.684 2.301-6.09 1.565-9.343l-3.956-17.485-5.239 1.602" fill="#E8B499"/><path d="M419.852 70.343s8.897 2.28 13.635 15.885c9.494 27.256 19.338 100.283 19.338 100.283l-16.994 3.262-23.828-93.556 7.849-25.874" fill="#EEC86A"/><path d="M414.301 67.83l7.621 3.451c3.086 1.398 5.079 4.51 5.09 7.951l.27 84.194h-63.886v-84.26c0-3.519 2.073-6.693 5.259-8.054l7.778-3.322 37.868.04" fill="#EEC86A"/><path d="M395.821 59.672l18.48 8.157s-18.987 17.472-37.867-.038l19.387-8.119" fill="#E8B499"/><path d="M375.764 68.366c.044.052 1.75 2.099 5.04 4.148 3.288 2.048 8.175 4.094 14.515 4.094 6.341 0 11.249-2.035 14.56-4.072 3.313-2.037 5.042-4.073 5.087-4.124l-1.329-1.165-.01.013c-.158.18-1.855 2.083-4.949 3.928-3.096 1.845-7.577 3.634-13.359 3.635-5.965 0-10.522-1.916-13.601-3.831a23.67 23.67 0 01-3.478-2.626c-.387-.356-.677-.65-.867-.853-.096-.1-.165-.178-.211-.23l-.048-.056-.01-.012h-.001l-1.339 1.15" fill="#fff"/><path d="M363.827 106.976v-9.392a.435.435 0 00-.431-.439.435.435 0 00-.431.44v9.391c0 .242.193.439.431.439a.435.435 0 00.431-.439z" fill="#000"/><path d="M294.576 29.499s8.209-3.724 11.118 3.318c2.802 6.78-8.324 13.242-8.324 13.242l-2.794-16.56" fill="#1E0B02"/><path d="M279.223 57.61c.086 3.132-2.336 5.742-5.411 5.83-3.076.089-5.639-2.378-5.726-5.51-.087-3.13 2.336-5.74 5.412-5.83 3.075-.088 5.638 2.379 5.725 5.51z" fill="#C67D69"/><path d="M270.64 57.283c.03-.014.255-.108.601-.108.355.002.836.093 1.403.481.566.389 1.22 1.083 1.877 2.303.09.166.295.228.459.136a.347.347 0 00.134-.468c-.696-1.29-1.415-2.077-2.093-2.542-.675-.465-1.305-.6-1.78-.598-.532 0-.866.16-.898.176a.347.347 0 00-.155.46.335.335 0 00.452.16" fill="#A8523F"/><path d="M299.561 57.771c0 3.132 2.494 5.671 5.57 5.671 3.078 0 5.57-2.539 5.57-5.67 0-3.134-2.492-5.674-5.57-5.674-3.076 0-5.57 2.54-5.57 5.673z" fill="#C67D69"/><path d="M308.41 56.569c-.031-.014-.338-.151-.828-.152-.469-.001-1.107.132-1.785.612-.679.48-1.397 1.294-2.073 2.64a.348.348 0 00.146.464c.167.086.37.019.456-.15.639-1.272 1.29-1.99 1.856-2.388.567-.398 1.051-.488 1.4-.49.182 0 .326.026.422.051l.106.032.021.009.003-.008-.003.008.003-.008-.003.008c.17.078.371 0 .448-.173a.347.347 0 00-.169-.455" fill="#A8523F"/><path d="M296.539 70.84s-3.14 2.257-6.002 2.814c-2.863.557-5.645-1.134-5.68-1.154l-3.343-1.958-1.368 18.669.37.311a13.089 13.089 0 0016.754.116l.718-.586-1.449-18.212" fill="#C67D69"/><path d="M280.146 68.579s3.122 10.403 10.304 10.288c5.904-.096 6.856-10.288 6.856-10.288h-17.16z" fill="#1E0B02"/><path d="M304.434 47.896a71.924 71.924 0 01-1.718 15.88c-.861 3.85-3.32 6.549-6.805 8.73l-.636.397c-3.687 2.307-8.465 2.385-12.231.2-3.799-2.205-6.465-5.124-7.302-9.245-1.521-7.495-1.725-15.805-1.725-15.805s-2.138-17.342 14.268-17.113c16.404.23 16.149 16.956 16.149 16.956" fill="#C67D69"/><path d="M283.477 52.983a1.34 1.34 0 01-1.327 1.352 1.34 1.34 0 01-1.328-1.352 1.34 1.34 0 011.328-1.353 1.34 1.34 0 011.327 1.353zm13.025 0a1.34 1.34 0 01-1.327 1.352 1.34 1.34 0 01-1.328-1.352 1.34 1.34 0 011.328-1.353 1.34 1.34 0 011.327 1.353z" fill="#1E0B02"/><path d="M287.119 54.957v3.728a.34.34 0 00.338.344h2.366a.34.34 0 00.338-.344.341.341 0 00-.338-.344h-2.028v-3.384a.341.341 0 00-.338-.345.341.341 0 00-.338.345" fill="#A8523F"/><path d="M277.202 47.27l8.675-.796s-.777-2.289-4.284-1.918c-3.589.38-4.391 2.713-4.391 2.713zm22.358 0l-8.673-.796s.776-2.289 4.284-1.918c3.588.38 4.389 2.713 4.389 2.713" fill="#000"/><path d="M284.489 61.773h8.557s-.402 2.67-4.406 2.67c-4.002 0-4.151-2.67-4.151-2.67z" fill="#fff"/><path d="M274.575 56.26s2.429-18.758 1.241-21.849c0 0-8.261 6.96-1.241 21.848m29.24-.149s-2.734-17.913-1.975-23.067c0 0 7.977 7.196 1.975 23.066" fill="#1E0B02"/><path d="M301.269 31.767l-7.564-1.166-.667-1.332-3.991.615-3.993-.615-.665 1.332-7.565 1.166-1.009 4.12.25 4.75s1.197-5.388 5.364-4.315c.983.253 2.16.672 3.535.954 1.286.286 2.51.415 3.666.435.136.004.277 0 .417.002.139-.002.28.002.417-.002 1.155-.02 2.379-.15 3.664-.434 1.376-.283 2.579-.615 3.535-.955 3.865-1.37 5.288 4.07 5.288 4.07l.326-4.506-1.008-4.12" fill="#1E0B02"/><path d="M301.118 36.454s-4.92 4.47-11.222 1.035c0 0-16.035 10.058-20.56-.891-3.773-9.127 11.889-21.515 28.048-7.557l3.734 7.413" fill="#1E0B02"/><path d="M316.796 96.605l-18.808-7.553-17.841.16-23.525 11.207c-1.844 1.124-1.497 3.399-.828 5.478l5.32 64.022 59-.826 3.845-65.049c.502-2.14-5.219-6.479-7.163-7.44z" fill="#E180A0"/><path d="M340.47 73.74l7.675-2.81 13.593 54.541c1.908 5.839-2.015 11.969-8.032 12.55-5.003.482-9.495-3.127-10.196-8.194l-3.04-56.087z" fill="#C67D69"/><path d="M340.47 73.74l-3.66-4.114a18.588 18.588 0 01-4.05-7.515l-1.327-4.918c-.315-1.17.477-2.346 1.661-2.468 1-.104 1.961.422 2.43 1.328l2.472 4.793.69-21.188c.01-.913.806-1.61 1.696-1.484l.597.086c.701.1 1.237.69 1.28 1.411l-.022 12.56 1.985-14.424c.069-.908.904-1.55 1.78-1.37l.435.09a1.51 1.51 0 011.19 1.603l-1.628 15.07 3.479-11.796c.253-.935 1.29-1.391 2.132-.94l.17.091c.577.31.889.966.771 1.62l-2.318 12.707 2.375-7.488c.337-1.065 1.652-1.404 2.446-.632.378.367.54.91.426 1.429l-6.163 28.09-8.847-2.54" fill="#C67D69"/><path d="M314.17 95.697c14.716 4.546 24.897 16.791 24.897 16.791l-11.069 22.365-25.404-12.003 11.576-27.153z" fill="#E180A0"/><path d="M245.06 121.164l-8.947 32.814c-1.017 5.218 5.041 11.135 9.958 12.462 4.855 1.311 3.828-2.564 5.1-7.642l12.194-31.042-18.305-6.592z" fill="#C67D69"/><path d="M236.979 157.78c1.585 6.699 22.376 21.487 22.376 21.487l11.919.107-21.627-30.426-12.668 8.832" fill="#C67D69"/><path d="M274.969 182.589s3.039 1.554 6.026.936c1.647-.341 1.942-2.622.448-3.405-3.894-2.04-12.091-6.808-15.323-7.997l-5.625-1.597-5.3 5.363 4.16 3.378s1 5.362 3.034 7.186c0 0 8.802 1.394 12.58-3.864" fill="#C67D69"/><path d="M256.621 100.419s-14.833 5.045-17.889 31.862l29.352 8.899 8.166-25.93-19.629-14.831" fill="#E180A0"/><path d="M267.981 95.023s-2.991 1.63-.645 6.362c1.333 2.688.456 5.968-2.032 7.597l-5.174 3.386a5.71 5.71 0 01-8.289-2.308c-1.016-2.113-1.66-4.522-.888-6.586 1.859-4.975 12.775-10.684 17.028-8.45" fill="#E8B499"/><path d="M554.706 79.749l6.018 1.927-12.738 40.393c-1.509 4.506-6.743 6.413-10.716 3.903-3.303-2.088-4.41-6.45-2.513-9.905l19.949-36.318" fill="#DE9A8C"/><path d="M554.952 78.405l.48-1.597a14.373 14.373 0 013.299-5.726l2.686-2.85a1.474 1.474 0 012.272.146c.463.636.501 1.496.096 2.171l-2.149 3.577 12.451-6.933a1.144 1.144 0 011.642.56l.182.437c.213.515.04 1.112-.413 1.427l-8.212 4.97 10.207-4.38a1.148 1.148 0 011.602.663l.114.329a1.184 1.184 0 01-.575 1.442l-8.809 4.389 7.406-1.836c.71-.2 1.42.32 1.458 1.07l.009.151c.026.514-.278.986-.752 1.165l-7.56 2.465 4.175-.355c.829-.194 1.571.561 1.383 1.406a1.17 1.17 0 01-.765.855l-19.13 5.965-1.18-4.458a9.3 9.3 0 01.083-5.053" fill="#DE9A8C"/><path d="M511.068 81.84s10.318 2.663 25.983 27.162l7.275-21.165 16.629 7.584-11.249 30.739c-2.941 8.033-12.966 10.489-19.122 4.64-4.941-4.696-20.752-22.502-23.928-28.53l4.412-20.43" fill="#262722"/><path d="M459.976 137.712s7.885 2.266 3.695 10.955c-3.776 7.833-10.327 9.472-15.769 8.154-.925-.223-1.389-1.288-.981-2.163a1.515 1.515 0 011.403-.884c1.969.042 5.478-.285 6.454-2.978 1.269-3.503-.529-7.35 1.466-10.965l3.732-2.119" fill="#DE9A8C"/><path d="M459.975 137.712l-4.741-7.993-6.983 3.996 8.521 9.464 3.203-5.467z" fill="#DE9A8C"/><path d="M459.914 85.392s-13.383 6.722-29.975 23.931c-1.689 1.751-2.363 4.31-1.669 6.659 1.273 4.307 5.591 11.495 19.104 20.885l11.739-6.084-10.261-13.914 19.62-8.279-8.558-23.198" fill="#262722"/><path d="M512.879 154.519l-46.266.551 5.331-72.585h35.714l5.221 72.034" fill="#fff"/><path d="M466.076 82.485l-6.162 2.907s9.117 33.77-4.079 85.807l11.404 2.688s12.334-37.686 11.214-88.495l-12.377-2.907m46.295.114l2.87 1.353c1.887.89 2.926 2.966 2.531 5.045-1.883 9.88-5.871 40.082 4.838 82.315L511.208 174s-12.335-37.686-11.214-88.495l12.377-2.906" fill="#262722"/><path d="M495.217 69.438s-2.436 2.087-4.657 2.6c-2.221.514-4.382-1.054-4.41-1.074l-2.595-1.814-1.049 13.086.288.29c3.769 3.776 9.2 3.826 13.004.119l.558-.542-1.139-12.665" fill="#DE9A8C"/><path d="M503.658 49.142a61.124 61.124 0 01-1.594 14.07c-.797 3.411-3.075 5.803-6.301 7.737l-.588.352c-3.414 2.044-7.838 2.114-11.324.18-3.516-1.954-5.985-4.54-6.758-8.19-1.407-6.641-1.594-14.004-1.594-14.004S474.323 33.92 489.51 34.12c15.188.2 14.148 15.02 14.148 15.02z" fill="#DE9A8C"/><path d="M484.26 53.72a1.24 1.24 0 01-1.229 1.252 1.24 1.24 0 01-1.229-1.252c0-.691.55-1.251 1.229-1.251.678 0 1.229.56 1.229 1.251zm12.058 0a1.24 1.24 0 01-1.229 1.252 1.24 1.24 0 01-1.228-1.252c0-.691.55-1.251 1.228-1.251.68 0 1.229.56 1.229 1.251z" fill="#1E0B02"/><path d="M487.657 56.75V59c0 .077.031.152.085.207a.287.287 0 00.204.086h1.49a.291.291 0 00.288-.294.29.29 0 00-.288-.293h-1.202V56.75a.291.291 0 00-.288-.294.292.292 0 00-.289.294" fill="#C47268"/><path d="M478.453 48.431l8.03-.737s-.719-2.12-3.966-1.775c-3.322.352-4.064 2.512-4.064 2.512zm20.698 0l-8.03-.737s.719-2.12 3.966-1.775c3.321.352 4.064 2.512 4.064 2.512zm-15.075 12.614c.027.021 1.625 1.37 4.127 1.372.45 0 .928-.044 1.43-.147a.294.294 0 00.225-.347.289.289 0 00-.34-.228 6.5 6.5 0 01-1.315.136 6.417 6.417 0 01-3.506-1.053 4.22 4.22 0 01-.194-.138l-.047-.036-.012-.01a.284.284 0 00-.406.038.297.297 0 00.038.413" fill="#000"/><path d="M475.908 43.623s9.891-7.798 27.765 0c0 0-1.575-11.328-13.883-11.328-12.306 0-13.882 11.328-13.882 11.328z" fill="#fff"/><path d="M492.166 70.882a6.421 6.421 0 01-5.815-.03c-6.94-3.584-10.511-12.179-10.081-21.613.242-5.303 3.357-9.017 6.504-11.435a10.971 10.971 0 0113.43 0c3.147 2.418 6.263 6.132 6.504 11.435.431 9.478-3.463 18.099-10.542 21.643zm16.785-22.918c-1.07-10.259-8.027-15.655-12.981-17.697a16.931 16.931 0 00-12.795-.023c-5.014 2.03-12.074 7.422-13.149 17.72-1.423 13.663 9.148 27.528 9.148 27.528l10.238-2.56 10.527 2.56s10.438-13.865 9.012-27.528" fill="#7B97FB"/><path d="M480.262 72.885l-14.187 9.6s18.184 15.427 47.758.808l-14.836-10.408h-18.735" fill="#7B97FB"/><path d="M478.347 82.338c.022.01 4.883 2.01 11.955 2.012 5.029 0 11.18-1.015 17.488-4.485a.288.288 0 00.113-.386.277.277 0 00-.378-.115c-6.214 3.419-12.266 4.417-17.223 4.417-3.484 0-6.425-.494-8.494-.987a28.847 28.847 0 01-2.405-.678 18.353 18.353 0 01-.634-.222l-.212-.082a.278.278 0 00-.364.157.287.287 0 00.154.37" fill="#6081EA"/></svg>