<svg xmlns="http://www.w3.org/2000/svg" width="18.638" height="20.642"><defs><filter id="a" x="5.638" y="7.642" width="13" height="13" filterUnits="userSpaceOnUse"><feOffset dy="1"/><feGaussianBlur stdDeviation=".5" result="blur"/><feFlood flood-opacity=".161"/><feComposite operator="in" in2="blur"/><feComposite in="SourceGraphic"/></filter></defs><g data-name="Group 34"><path d="M15.086 2.45a3.985 3.985 0 011.209 2.926 3.985 3.985 0 01-1.209 2.926l-3.944 3.912a1.038 1.038 0 00-.254.684 3.3 3.3 0 00.032.811 4.928 4.928 0 010 .8 1.061 1.061 0 01-.254.7l-.827.859a1.156 1.156 0 01-.732.223 5.548 5.548 0 01-2.735-1.081 2.731 2.731 0 00.954-.573 4.1 4.1 0 001.781.636 2.928 2.928 0 00-.382-1.256 11.233 11.233 0 00-1.272-1.988 1.953 1.953 0 01-.541 2.067 1.7 1.7 0 01-.445.318 1.7 1.7 0 01-.573.223q-.159.032-.286.064h-.159a2.1 2.1 0 01-1.495-.6 2.189 2.189 0 01-.6-1.368v-.286q.032-.159.064-.286v-.032a1.716 1.716 0 01.223-.541v-.038a1.957 1.957 0 01.318-.413 2.046 2.046 0 011.495-.636 2.027 2.027 0 01.859.191l-.35-.35a15.532 15.532 0 00-2.847-2.306 4.668 4.668 0 00-2.083-.843 3.433 3.433 0 00.509 1.495 13.508 13.508 0 001.617 2.348 2.65 2.65 0 00-.413 1.014A13.22 13.22 0 01.408 8.683q-.716-1.59-.175-2.226l.859-.859a1.322 1.322 0 01.7-.286 1.629 1.629 0 01.8.064 1.443 1.443 0 001.49-.226l3.912-3.944A3.986 3.986 0 0110.919 0a3.985 3.985 0 012.926 1.209.844.844 0 01.62-.254.844.844 0 01.62.254.844.844 0 01.254.62.844.844 0 01-.254.62z" fill="#303c42"/><g transform="translate(-.002 .002)" filter="url(#a)"><circle data-name="Ellipse 3" cx="5" cy="5" r="5" transform="translate(7.14 8.14)" fill="#cd5a5a"/></g></g></svg>